# xmcd
#
# Track frame offsets:
#	150
#	13320
#	26410
#	37400
#	59750
#	74335
#	89597
#	101002
#	113205
#	127075
#	138447
#	151250
#	161950
#	175285
#	186140
#	196355
#	210157
#	221372
#	232437
#	245697
#
# Disc length: 3484 seconds
#
# Revision: 0
# Processed by: cddbd v1.5.2PL0 Copyright (c) Steve Scherf et al.
# Submitted via: EasyCDDAExtractor 16.0.6.1
#
DISCID=380d9a14
DTITLE=Συλλογικός δίσκος - Μικρασιατικοί σκοποί και τραγούδια
DYEAR=1995
DGENRE=Παραδοσιακή
TTITLE0=Άνευ ερμηνευτού - Ταταυλιανό χασάπικο [1962,ορχ., Στέλ. Χρυσίνη, μεσοφ
TTITLE0=ωνία Λάζ. Κουλαξίζης]
TTITLE1=Παγιουμτζής Στράτος-Χρυσάφη Άννα - Μέσ' στης Πόλης το χαμάμ [1962,τσιφ
TTITLE1=τ. Στράτου Παγιουμτζή]
TTITLE2=Καραθανάση Ξανθίππη - Αλατσατιανή [1972, παραδ. απτάλικος]
TTITLE3=Ξανθόπουλος Νίκος - Μπεκλεντίμ ντε γκελμεντήν [1969, βαλς Γιώργου Μανι
TTITLE3=σαλή]
TTITLE4=Ugurlu Ali - Sinanay cifteteli [1960, τσιφτ. του Ali Ugurlu-Τοπάλογλου
TTITLE4=]
TTITLE5=Εσκενάζυ Ρόζα - Σαμπάχ αμανές [1967, αμανές των Δημήτρη Μανησαλή-Ρόζας
TTITLE5=Εσκενάζυ]
TTITLE6=Μάριος - Μιά Σμυρνιά [παραδοσιακός καλαματιανός]
TTITLE7=Άνευ ερμηνευτού - Συρτό πολίτικο [1964, ορχ., Στέλιου Χρυσίνη]
TTITLE8=Κόκκινος Περικλής-Θύμη Καίτη - Ο παστουρμάς [1964, συρτός των Δ. Μανησ
TTITLE8=αλή, Γ. Λαδόπουλου, Χ. Βασιλειάδη]
TTITLE9=Μπάμπα Ούλα-Τρίο Τέμπο - Ο Μουσταφάς [1961, δημώδες τσιφτ. διασκ. Άκη 
TTITLE9=Σμυρναίου, Βασ. Καρδή]
TTITLE10=Ugurlu Ali - Manolia [1960, Ali Ugurlu-Τοπάλογλου]
TTITLE11=Καραθανάση Ξανθίππη - Γιαρούμπη [παραδοσιακός μπάλος]
TTITLE12=Μάριος - Κορδελιώτισσα [παραδοσιακός καλαματιανός]
TTITLE13=Εσκενάζυ Ρόζα - Χόρεψέ μου τσιφτετέλι [1967, τσιφτ. των Δημήτρη Μανησ
TTITLE13=αλή-Ρόζας Εσκενάζυ]
TTITLE14=Σαμίου Δόμνα - Νανούρισμα [1969, Μικράς Ασίας, διασκ. Δόμνας Σαμίου]
TTITLE15=Ugurlu Ali-Gioul Hanoum - Φύγε (Τσαπκίν) [1964,τσιφτ. των Ali Ugurlu-
TTITLE15=Τοπάλογλου, Κώστα Βίρβου]
TTITLE16=Καραθανάση Ξανθίππη - Από ξένο τόπο [παραδ. γοργό τσιφτετέλι]
TTITLE17=Χορωδία - Δε σε θέλω πια [παραδοσιακόςς γοργός χασάπικος]
TTITLE18=Εσκενάζυ Ρόζα - Αηδόνι μου ζηλιάρικο [1965,τσιφτ. των Δημήτρη Μανησαλ
TTITLE18=ή-Ρόζας Εσκενάζη]
TTITLE19=Άνευ ερμηνευτού - Χασάπικο πολίτικο [1960, ορχ., διασκ. Στέλιου Χρυσί
TTITLE19=νη, Σοφίας Σιδέρη]
EXTD=
EXTT0=
EXTT1=
EXTT2=
EXTT3=
EXTT4=
EXTT5=
EXTT6=
EXTT7=
EXTT8=
EXTT9=
EXTT10=
EXTT11=
EXTT12=
EXTT13=
EXTT14=
EXTT15=
EXTT16=
EXTT17=
EXTT18=
EXTT19=
PLAYORDER=
